# xmcd
#
# Track frame offsets:
#	150
#	12823
#	24246
#	37282
#	50903
#	62864
#	75221
#	86334
#	98898
#	111296
#	124167
#	137581
#	150360
#	163271
#	177422
#	191442
#	203588
#	216145
#	231169
#	246523
#	259902
#	273130
#	286970
#
# Disc length: 3991 seconds
#
# Revision: 3
# Processed by: cddbd v1.5.2PL0 Copyright (c) Steve Scherf et al.
# Submitted via: EasyCDDAExtractor 11.1.0.1
#
DISCID=400f9517
DTITLE=Blind Lemon Jefferson - The Complete Classic Sides - Chicago 1928 - Dis
DTITLE=c 3
DYEAR=2002
DGENRE=Blues
TTITLE0=Blind Lemon's Penitentiary Blues (February, 1928)
TTITLE1='Lectric Chair Blues (February, 1928)
TTITLE2=See That My Grave Is Kept Clean (Febuary, 1928)
TTITLE3=Lemon's Worried Blues (February, 1928)
TTITLE4=Mean Jumper Blues (February, 1928)
TTITLE5=Balky Mule Blues, February, 1928)
TTITLE6=Change My Luck Blues (February, 1928)
TTITLE7=Prison Cell Blues (February, 1928)
TTITLE8=Lemon's Cannon Ball Moan (March, 1928)
TTITLE9=Long Lastin' Lovin' (March, 1928)
TTITLE10=Piney Wood's Money Mama (March, 1928)
TTITLE11=Low Down Mojo Blues (June, 1928)
TTITLE12=Competition Bed Blues (July, 1928)
TTITLE13=Lock Step Blues (July, 1928)
TTITLE14=Hangman's Blues (July, 1928)
TTITLE15=Sad News Blues (July, 1928)
TTITLE16=How Long How Long (July, 1928)
TTITLE17=Lockstep Blues (August, 1928)
TTITLE18=Hangman's Blues (August, 1928)
TTITLE19=Christmas Eve Blues (August, 1928)
TTITLE20=Happy New Year Blues (August, 1928)
TTITLE21=Maltese Cat Blues (August, 1928)
TTITLE22=D B Blues (August, 1928)
EXTD=YEAR: 2002
EXTT0=
EXTT1=
EXTT2=
EXTT3=
EXTT4=
EXTT5=
EXTT6=
EXTT7=
EXTT8=
EXTT9=
EXTT10=
EXTT11=
EXTT12=
EXTT13=
EXTT14=
EXTT15=
EXTT16=
EXTT17=
EXTT18=
EXTT19=
EXTT20=
EXTT21=
EXTT22=
PLAYORDER=
